<svg width="24" height="24" viewBox="0 0 24 24" fill="none" xmlns="http://www.w3.org/2000/svg">
<path fill-rule="evenodd" clip-rule="evenodd" d="M58.6914 71.1914H12.4512C4.15038 71.1914 0 67.0899 0 58.8867V12.3047C0 4.10159 4.15038 0 12.4512 0H58.6914C67.041 0 71.1426 4.10159 71.1426 12.3047V58.8867C71.1426 67.0899 67.041 71.1914 58.6914 71.1914ZM22.998 49.2187C22.998 51.6601 24.2187 53.3202 26.5624 53.3202H45.2148C46.9238 53.3202 48.1933 52.1972 48.1933 50.3905C48.1933 48.5351 46.9238 47.4609 45.2148 47.4609H30.2245V37.6464H44.1405C45.8495 37.6464 47.1191 36.7187 47.1191 34.912C47.1191 33.0566 45.8495 32.08 44.1405 32.08H30.2245V22.7538H45.2148C46.9238 22.7538 48.1933 21.5819 48.1933 19.8241C48.1933 17.9198 46.9238 16.8945 45.2148 16.8945H26.5624C24.2187 16.8945 22.998 18.5546 22.998 20.996V49.2187Z" fill="black"/>
</svg>